<svg width="20" height="20" viewBox="0 0 20 20" fill="none" xmlns="http://www.w3.org/2000/svg">
<g clip-path="url(#clip0_171_12)">
<path d="M20.2147 10.168C20.2147 4.58627 15.6891 0.0607033 10.1073 0.0607033C4.52556 0.0607033 0 4.58627 0 10.168C0 15.2133 3.69592 19.3944 8.52807 20.1524V13.0899H5.96165V10.1672H8.52807V7.9419C8.52807 5.40917 10.0374 4.0093 12.3461 4.0093C13.4512 4.0093 14.6085 4.20724 14.6085 4.20724V6.69449H13.3333C12.0774 6.69449 11.6858 7.4736 11.6858 8.27292V10.168H14.4889L14.0408 13.0908H11.6858V20.1533C16.5188 19.3944 20.2147 15.2124 20.2147 10.168Z" fill="#1877F2"/>
</g>
<defs>
<clipPath id="clip0_171_12">
<rect width="19.7877" height="19.7877" fill="white" transform="scale(1.01073)"/>
</clipPath>
</defs>
</svg>
